<svg xmlns="http://www.w3.org/2000/svg" xmlns:xlink="http://www.w3.org/1999/xlink" width="0" height="0" style="display:none;"><symbol viewBox="0 0 24 24" id="wordpress-fill"><path d="M3.32308 12C3.32308 15.4385 5.32308 18.4 8.21538 19.8077L4.07692 8.46923C3.57998 9.57999 3.3231 10.7831 3.32308 12ZM12 20.6769C13.0077 20.6769 13.9769 20.5 14.8846 20.1846L14.8231 20.0692L12.1538 12.7615L9.55385 20.3231C10.3231 20.5538 11.1462 20.6769 12 20.6769ZM13.1923 7.93077L16.3308 17.2615L17.2 14.3692C17.5692 13.1692 17.8538 12.3077 17.8538 11.5615C17.8538 10.4846 17.4692 9.74615 17.1462 9.17692C16.7 8.45385 16.2923 7.84615 16.2923 7.13846C16.2923 6.33846 16.8923 5.6 17.7538 5.6H17.8615C16.2627 4.13224 14.1704 3.31946 12 3.32308C10.5629 3.32281 9.14834 3.67979 7.88347 4.3619C6.61861 5.04402 5.54315 6.02987 4.75385 7.23077L5.30769 7.24615C6.21538 7.24615 7.61539 7.13077 7.61539 7.13077C8.09231 7.10769 8.14615 7.79231 7.67692 7.84615C7.67692 7.84615 7.20769 7.90769 6.67692 7.93077L9.84615 17.3308L11.7462 11.6385L10.3923 7.93077C10.0891 7.91404 9.78636 7.88838 9.48462 7.85385C9.01538 7.82308 9.06923 7.10769 9.53846 7.13077C9.53846 7.13077 10.9692 7.24615 11.8231 7.24615C12.7308 7.24615 14.1308 7.13077 14.1308 7.13077C14.6 7.10769 14.6615 7.79231 14.1923 7.84615C14.1923 7.84615 13.7231 7.9 13.1923 7.93077ZM16.3615 19.5C17.6742 18.7368 18.7636 17.6424 19.5208 16.3263C20.2781 15.0102 20.6767 13.5184 20.6769 12C20.6769 10.4923 20.2923 9.07692 19.6154 7.83846C19.7529 9.20099 19.5466 10.5762 19.0154 11.8385L16.3615 19.5ZM12 22C9.34784 22 6.8043 20.9464 4.92893 19.0711C3.05357 17.1957 2 14.6522 2 12C2 9.34784 3.05357 6.8043 4.92893 4.92893C6.8043 3.05357 9.34784 2 12 2C14.6522 2 17.1957 3.05357 19.0711 4.92893C20.9464 6.8043 22 9.34784 22 12C22 14.6522 20.9464 17.1957 19.0711 19.0711C17.1957 20.9464 14.6522 22 12 22Z"></path></symbol><symbol viewBox="0 0 24 24" id="brush-2-fill"><path d="M16.5357 15.9465L18.657 13.8252L15.475 10.6432L19.0106 7.10768L16.8892 4.98636L13.3537 8.52189L10.1717 5.33991L8.05041 7.46123L16.5357 15.9465ZM13.3537 5.69346L16.1821 2.86504C16.5727 2.47451 17.2058 2.47451 17.5963 2.86504L21.1319 6.40057C21.5224 6.79109 21.5224 7.42426 21.1319 7.81478L18.3035 10.6432L20.7783 13.1181C21.1689 13.5086 21.1689 14.1418 20.7783 14.5323L13.0002 22.3105C12.6096 22.701 11.9765 22.701 11.5859 22.3105L1.68645 12.411C1.29592 12.0205 1.29592 11.3873 1.68645 10.9968L9.46462 3.21859C9.85515 2.82807 10.4883 2.82807 10.8788 3.21859L13.3537 5.69346Z"></path></symbol><symbol viewBox="0 0 24 24" id="box-3-line"><path d="M12 1L21.5 6.5V17.5L12 23L2.5 17.5V6.5L12 1ZM5.49388 7.0777L12.0001 10.8444L18.5062 7.07774L12 3.311L5.49388 7.0777ZM4.5 8.81329V16.3469L11.0001 20.1101V12.5765L4.5 8.81329ZM13.0001 20.11L19.5 16.3469V8.81337L13.0001 12.5765V20.11Z"></path></symbol><symbol viewBox="0 0 24 24" id="github-fill"><path d="M12.001 2C6.47598 2 2.00098 6.475 2.00098 12C2.00098 16.425 4.86348 20.1625 8.83848 21.4875C9.33848 21.575 9.52598 21.275 9.52598 21.0125C9.52598 20.775 9.51348 19.9875 9.51348 19.15C7.00098 19.6125 6.35098 18.5375 6.15098 17.975C6.03848 17.6875 5.55098 16.8 5.12598 16.5625C4.77598 16.375 4.27598 15.9125 5.11348 15.9C5.90098 15.8875 6.46348 16.625 6.65098 16.925C7.55098 18.4375 8.98848 18.0125 9.56348 17.75C9.65098 17.1 9.91348 16.6625 10.201 16.4125C7.97598 16.1625 5.65098 15.3 5.65098 11.475C5.65098 10.3875 6.03848 9.4875 6.67598 8.7875C6.57598 8.5375 6.22598 7.5125 6.77598 6.1375C6.77598 6.1375 7.61348 5.875 9.52598 7.1625C10.326 6.9375 11.176 6.825 12.026 6.825C12.876 6.825 13.726 6.9375 14.526 7.1625C16.4385 5.8625 17.276 6.1375 17.276 6.1375C17.826 7.5125 17.476 8.5375 17.376 8.7875C18.0135 9.4875 18.401 10.375 18.401 11.475C18.401 15.3125 16.0635 16.1625 13.8385 16.4125C14.201 16.725 14.5135 17.325 14.5135 18.2625C14.5135 19.6 14.501 20.675 14.501 21.0125C14.501 21.275 14.6885 21.5875 15.1885 21.4875C19.259 20.1133 21.9999 16.2963 22.001 12C22.001 6.475 17.526 2 12.001 2Z"></path></symbol><symbol viewBox="0 0 24 24" id="mastodon-fill"><path d="M21.2595 13.9898C20.9852 15.4006 18.8033 16.9446 16.2974 17.2439C14.9907 17.3998 13.7041 17.5431 12.3321 17.4802C10.0885 17.3774 8.31809 16.9446 8.31809 16.9446C8.31809 17.163 8.33156 17.371 8.3585 17.5655C8.65019 19.7797 10.5541 19.9124 12.3576 19.9742C14.1779 20.0365 15.7987 19.5254 15.7987 19.5254L15.8735 21.1711C15.8735 21.1711 14.6003 21.8548 12.3321 21.9805C11.0814 22.0493 9.52849 21.9491 7.71973 21.4703C3.79684 20.432 3.12219 16.2504 3.01896 12.0074C2.98749 10.7477 3.00689 9.55981 3.00689 8.56632C3.00689 4.22771 5.84955 2.95599 5.84955 2.95599C7.2829 2.29772 9.74238 2.0209 12.2993 2H12.3621C14.919 2.0209 17.3801 2.29772 18.8133 2.95599C18.8133 2.95599 21.6559 4.22771 21.6559 8.56632C21.6559 8.56632 21.6916 11.7674 21.2595 13.9898ZM18.3029 8.9029C18.3029 7.82924 18.0295 6.97604 17.4805 6.34482C16.9142 5.71359 16.1726 5.39001 15.2522 5.39001C14.187 5.39001 13.3805 5.79937 12.8473 6.61819L12.3288 7.48723L11.8104 6.61819C11.2771 5.79937 10.4706 5.39001 9.40554 5.39001C8.485 5.39001 7.74344 5.71359 7.17719 6.34482C6.62807 6.97604 6.3547 7.82924 6.3547 8.9029V14.1562H8.43597V9.05731C8.43597 7.98246 8.88822 7.4369 9.79281 7.4369C10.793 7.4369 11.2944 8.08408 11.2944 9.36376V12.1547H13.3634V9.36376C13.3634 8.08408 13.8646 7.4369 14.8648 7.4369C15.7694 7.4369 16.2216 7.98246 16.2216 9.05731V14.1562H18.3029V8.9029Z"></path></symbol><symbol viewBox="0 0 24 24" id="mail-line"><path d="M3 3H21C21.5523 3 22 3.44772 22 4V20C22 20.5523 21.5523 21 21 21H3C2.44772 21 2 20.5523 2 20V4C2 3.44772 2.44772 3 3 3ZM20 7.23792L12.0718 14.338L4 7.21594V19H20V7.23792ZM4.51146 5L12.0619 11.662L19.501 5H4.51146Z"></path></symbol><symbol viewBox="0 0 24 24" id="arrow-down-s-line"><path d="M11.9999 13.1714L16.9497 8.22168L18.3639 9.63589L11.9999 15.9999L5.63599 9.63589L7.0502 8.22168L11.9999 13.1714Z"></path></symbol><symbol viewBox="0 0 24 24" id="close-line"><path d="M11.9997 10.5865L16.9495 5.63672L18.3637 7.05093L13.4139 12.0007L18.3637 16.9504L16.9495 18.3646L11.9997 13.4149L7.04996 18.3646L5.63574 16.9504L10.5855 12.0007L5.63574 7.05093L7.04996 5.63672L11.9997 10.5865Z"></path></symbol></svg>